<svg id="Capa_1" enable-background="new 0 0 513.441 513.441" height="512" viewBox="0 0 513.441 513.441" width="512" xmlns="http://www.w3.org/2000/svg"><g><path d="m31 332.29c0 50.079 40.742 90.821 90.821 90.821 50.078 0 90.82-40.742 90.82-90.821s-40.742-90.821-90.82-90.821c-50.079-.001-90.821 40.741-90.821 90.821zm166.642 0c0 41.808-34.013 75.821-75.82 75.821s-75.822-34.013-75.822-75.821 34.014-75.821 75.821-75.821 75.821 34.012 75.821 75.821z"/><path d="m496.199 269.876c-.018-.039-.031-.08-.05-.119l-60.835-126.121c-8.405-17.427-22.366-31.251-39.118-39.765l-5.742-11.906c-9.563-19.825-29.965-32.634-51.975-32.634-31.818 0-57.704 25.886-57.704 57.705v22.157c-5.056 9.065-8.538 19.12-10.077 29.797h-27.953c-1.539-10.677-5.021-20.733-10.078-29.799v-22.155c0-31.818-25.886-57.705-57.704-57.705-22.01 0-42.411 12.81-51.975 32.635l-5.742 11.905c-16.752 8.515-30.713 22.339-39.118 39.765l-10.537 21.844c-1.8 3.73-.234 8.214 3.496 10.014 3.731 1.798 8.214.235 10.014-3.497l10.537-21.845c11.944-24.764 37.429-40.765 64.923-40.765 39.746 0 72.082 32.335 72.082 72.081v92.264c-7.062-12.872-16.47-24.515-27.946-34.274-3.155-2.684-7.889-2.3-10.571.854-2.684 3.155-2.301 7.889.854 10.572 23.936 20.355 37.663 50.026 37.663 81.405 0 58.901-47.92 106.821-106.821 106.821s-106.822-47.919-106.822-106.82 47.92-106.821 106.821-106.821c15.311 0 30.089 3.169 43.925 9.419 3.771 1.704 8.217.028 9.923-3.748 1.705-3.775.027-8.217-3.747-9.922-15.79-7.132-32.646-10.749-50.101-10.749-26.016 0-50.15 8.202-69.962 22.15l15.321-31.764c1.8-3.731.234-8.214-3.496-10.014-3.729-1.796-8.214-.234-10.014 3.497l-36.378 75.419c-.019.039-.032.08-.05.119-10.941 18.266-17.242 39.616-17.242 62.414 0 67.172 54.648 121.821 121.821 121.821 66.326 0 120.435-53.281 121.789-119.288h26.222c1.354 66.007 55.463 119.288 121.788 119.288 67.173 0 121.821-54.649 121.821-121.821 0-22.798-6.3-44.148-17.242-62.414zm-74.395-119.724 39.777 82.465c-19.811-13.947-43.945-22.149-69.961-22.149-45.98 0-86.087 25.609-106.82 63.31v-92.31c0-39.746 32.335-72.081 72.081-72.081 27.494 0 52.978 16.002 64.923 40.765zm-152.004 169.671h-26.157v-135.834h26.157zm68.679-245.492c15.552 0 29.999 8.653 37.436 22.203-6.185-1.403-12.562-2.146-19.034-2.146-23.787 0-45.374 9.591-61.106 25.104v-2.456c-.001-23.548 19.157-42.705 42.704-42.705zm-181.918 20.056c-6.472 0-12.849.743-19.034 2.146 7.438-13.55 21.885-22.203 37.436-22.203 23.547 0 42.704 19.157 42.704 42.705v2.456c-15.732-15.513-37.319-25.104-61.106-25.104zm235.059 344.724c-58.901 0-106.82-47.92-106.82-106.821s47.919-106.821 106.82-106.821 106.821 47.92 106.821 106.821-47.92 106.821-106.821 106.821z"/><path d="m425.693 248.123c-3.838-1.56-8.214.289-9.771 4.126-1.56 3.838.288 8.212 4.126 9.771 28.79 11.694 47.393 39.277 47.393 70.269 0 41.808-34.014 75.821-75.821 75.821s-75.82-34.013-75.82-75.821c0-41.725 33.945-75.736 75.671-75.817 4.142-.008 7.493-3.373 7.485-7.515-.008-4.137-3.364-7.485-7.5-7.485-.005 0-.01 0-.015 0-49.979.097-90.642 40.838-90.642 90.817 0 50.079 40.742 90.821 90.82 90.821 50.079 0 90.821-40.742 90.821-90.821.001-37.125-22.273-70.163-56.747-84.166z"/></g></svg>